<svg xmlns="http://www.w3.org/2000/svg" viewBox="0 0 640 640">
<path d="M64 96C64 60.7 92.7 32 128 32L512 32C547.3 32 576 60.7 576 96L576 416C576 451.3 547.3 480 512 480L128 480C92.7 480 64 451.3 64 416L64 96zM128 96L128 299.6L188.1 254.5C195.3 248.7 205.1 248.5 212.5 254.1L272 300L372.4 179.7C380.1 170.3 394.3 169.8 402.7 178.5L512 294.2L512 96L128 96zM128 416L512 416L512 358.9L398.5 236.2L304.9 349.4C297.5 358.3 284.5 359.6 275.5 352.3L213.8 303.2L128 373.1L128 416zM224 192C224 227.3 195.3 256 160 256C124.7 256 96 227.3 96 192C96 156.7 124.7 128 160 128C195.3 128 224 156.7 224 192z"/>
</svg>
