<svg xmlns="http://www.w3.org/2000/svg" viewBox="0 0 640 640">
<path d="M320 32C164.3 32 32 164.3 32 320C32 475.7 164.3 608 320 608C475.7 608 608 475.7 608 320C608 164.3 475.7 32 320 32zM320 160C337.7 160 352 174.3 352 192C352 209.7 337.7 224 320 224C302.3 224 288 209.7 288 192C288 174.3 302.3 160 320 160zM368 448L272 448C258.7 448 248 437.3 248 424C248 410.7 258.7 400 272 400L296 400L296 296L280 296C266.7 296 256 285.3 256 272C256 258.7 266.7 248 280 248L320 248C333.3 248 344 258.7 344 272L344 400L368 400C381.3 400 392 410.7 392 424C392 437.3 381.3 448 368 448z"/>
</svg>
